<?xml version="1.0" encoding="UTF-8" standalone="no"?>
<!-- Created with Inkscape (http://www.inkscape.org/) -->

<svg
   xmlns:dc="http://purl.org/dc/elements/1.1/"
   xmlns:cc="http://creativecommons.org/ns#"
   xmlns:rdf="http://www.w3.org/1999/02/22-rdf-syntax-ns#"
   xmlns:svg="http://www.w3.org/2000/svg"
   xmlns="http://www.w3.org/2000/svg"
   xmlns:xlink="http://www.w3.org/1999/xlink"
   xmlns:sodipodi="http://sodipodi.sourceforge.net/DTD/sodipodi-0.dtd"
   xmlns:inkscape="http://www.inkscape.org/namespaces/inkscape"
   width="150mm"
   height="180mm"
   viewBox="0 0 150 180"
   version="1.1"
   id="svg618"
   inkscape:version="0.92.2 (5c3e80d, 2017-08-06)"
   sodipodi:docname="logo flq.svg">
  <defs
     id="defs612">
    <linearGradient
       inkscape:collect="always"
       id="linearGradient890">
      <stop
         style="stop-color:#800000;stop-opacity:1;"
         offset="0"
         id="stop886" />
      <stop
         style="stop-color:#800000;stop-opacity:0;"
         offset="1"
         id="stop888" />
    </linearGradient>
    <inkscape:perspective
       sodipodi:type="inkscape:persp3d"
       inkscape:vp_x="0 : 90 : 1"
       inkscape:vp_y="0 : 1000 : 0"
       inkscape:vp_z="150 : 90 : 1"
       inkscape:persp3d-origin="75 : 60 : 1"
       id="perspective808" />
    <radialGradient
       inkscape:collect="always"
       xlink:href="#linearGradient890"
       id="radialGradient892"
       cx="5.0763068"
       cy="130.63347"
       fx="5.0763068"
       fy="130.63347"
       r="11.154689"
       gradientTransform="matrix(-6.2085307,7.3652872,-2.7822947,-2.3453204,400.05352,410.15423)"
       gradientUnits="userSpaceOnUse" />
  </defs>
  <sodipodi:namedview
     id="base"
     pagecolor="#ffffff"
     bordercolor="#666666"
     borderopacity="1.0"
     inkscape:pageopacity="0.0"
     inkscape:pageshadow="2"
     inkscape:zoom="0.78787037"
     inkscape:cx="283.46457"
     inkscape:cy="419.91472"
     inkscape:document-units="mm"
     inkscape:current-layer="layer1"
     showgrid="false"
     inkscape:window-width="1366"
     inkscape:window-height="705"
     inkscape:window-x="-8"
     inkscape:window-y="-8"
     inkscape:window-maximized="1" />
  <metadata
     id="metadata615">
    <rdf:RDF>
      <cc:Work
         rdf:about="">
        <dc:format>image/svg+xml</dc:format>
        <dc:type
           rdf:resource="http://purl.org/dc/dcmitype/StillImage" />
        <dc:title></dc:title>
      </cc:Work>
    </rdf:RDF>
  </metadata>
  <g
     inkscape:label="Capa 1"
     inkscape:groupmode="layer"
     id="layer1"
     transform="translate(0,-117)">
    <flowRoot
       xml:space="preserve"
       id="flowRoot620"
       style="font-style:normal;font-variant:normal;font-weight:normal;font-stretch:condensed;font-size:64px;line-height:1.25;font-family:'Niagara Engraved';-inkscape-font-specification:'Niagara Engraved Condensed';letter-spacing:0px;word-spacing:0px;fill:#000000;fill-opacity:1;stroke:none"
       transform="matrix(0.26458333,0,0,0.26458333,88.992537,75.694035)"><flowRegion
         id="flowRegion622"
         style="font-style:normal;font-variant:normal;font-weight:normal;font-stretch:condensed;font-family:'Niagara Engraved';-inkscape-font-specification:'Niagara Engraved Condensed'"><rect
           id="rect624"
           width="275.42603"
           height="100.2703"
           x="148.50159"
           y="143.42459"
           style="font-style:normal;font-variant:normal;font-weight:normal;font-stretch:condensed;font-family:'Niagara Engraved';-inkscape-font-specification:'Niagara Engraved Condensed'" /></flowRegion><flowPara
         id="flowPara626"
         style="font-style:normal;font-variant:normal;font-weight:normal;font-stretch:ultra-condensed;font-family:Playbill;-inkscape-font-specification:'Playbill Ultra-Condensed';fill:#550000">FLQQ</flowPara></flowRoot>    <flowRoot
       xml:space="preserve"
       id="flowRoot628"
       style="fill:black;fill-opacity:1;stroke:none;font-family:sans-serif;font-style:normal;font-weight:normal;font-size:40px;line-height:1.25;letter-spacing:0px;word-spacing:0px"><flowRegion
         id="flowRegion630"><rect
           id="rect632"
           width="68.539192"
           height="49.50053"
           x="170.07874"
           y="143.42459" /></flowRegion><flowPara
         id="flowPara634"></flowPara></flowRoot>    <flowRoot
       xml:space="preserve"
       id="flowRoot644"
       style="fill:black;fill-opacity:1;stroke:none;font-family:sans-serif;font-style:normal;font-weight:normal;font-size:40px;line-height:1.25;letter-spacing:0px;word-spacing:0px"><flowRegion
         id="flowRegion646"><rect
           id="rect648"
           width="83.770126"
           height="97.731812"
           x="161.19403"
           y="140.88611" /></flowRegion><flowPara
         id="flowPara650"></flowPara></flowRoot>    <flowRoot
       xml:space="preserve"
       id="flowRoot620-9"
       style="font-style:normal;font-variant:normal;font-weight:normal;font-stretch:condensed;font-size:64px;line-height:1.25;font-family:'Niagara Engraved';-inkscape-font-specification:'Niagara Engraved Condensed';letter-spacing:0px;word-spacing:0px;fill:#000000;fill-opacity:1;stroke:none"
       transform="matrix(0.26458333,0,0,0.26458333,-33.701328,236.94594)"><flowRegion
         id="flowRegion622-1"
         style="font-style:normal;font-variant:normal;font-weight:normal;font-stretch:condensed;font-family:'Niagara Engraved';-inkscape-font-specification:'Niagara Engraved Condensed'"><rect
           id="rect624-2"
           width="275.42603"
           height="100.2703"
           x="148.50159"
           y="143.42459"
           style="font-style:normal;font-variant:normal;font-weight:normal;font-stretch:condensed;font-family:'Niagara Engraved';-inkscape-font-specification:'Niagara Engraved Condensed'" /></flowRegion><flowPara
         id="flowPara626-6"
         style="font-style:normal;font-variant:normal;font-weight:normal;font-stretch:ultra-condensed;font-family:Playbill;-inkscape-font-specification:'Playbill Ultra-Condensed';fill:#550000">FLQQ</flowPara></flowRoot>    <flowRoot
       xml:space="preserve"
       id="flowRoot620-4"
       style="font-style:normal;font-variant:normal;font-weight:normal;font-stretch:condensed;font-size:64px;line-height:1.25;font-family:'Niagara Engraved';-inkscape-font-specification:'Niagara Engraved Condensed';letter-spacing:0px;word-spacing:0px;fill:#000080;fill-opacity:1;stroke:none"
       transform="matrix(0.26458333,0,0,0.26458333,-39.074463,75.080262)"><flowRegion
         id="flowRegion622-2"
         style="font-style:normal;font-variant:normal;font-weight:normal;font-stretch:condensed;font-family:'Niagara Engraved';-inkscape-font-specification:'Niagara Engraved Condensed';fill:#000080"><rect
           id="rect624-1"
           width="275.42603"
           height="100.2703"
           x="148.50159"
           y="143.42459"
           style="font-style:normal;font-variant:normal;font-weight:normal;font-stretch:condensed;font-family:'Niagara Engraved';-inkscape-font-specification:'Niagara Engraved Condensed';fill:#000080" /></flowRegion><flowPara
         id="flowPara626-61"
         style="font-style:normal;font-variant:normal;font-weight:normal;font-stretch:ultra-condensed;font-family:Playbill;-inkscape-font-specification:'Playbill Ultra-Condensed';fill:#000080">FLQQ</flowPara></flowRoot>    <flowRoot
       xml:space="preserve"
       id="flowRoot620-2"
       style="font-style:normal;font-variant:normal;font-weight:normal;font-stretch:condensed;font-size:64px;line-height:1.25;font-family:'Niagara Engraved';-inkscape-font-specification:'Niagara Engraved Condensed';letter-spacing:0px;word-spacing:0px;fill:#00ff00;fill-opacity:1;stroke:none"
       transform="matrix(0.26458333,0,0,0.26458333,88.537478,241.64743)"><flowRegion
         id="flowRegion622-4"
         style="font-style:normal;font-variant:normal;font-weight:normal;font-stretch:condensed;font-family:'Niagara Engraved';-inkscape-font-specification:'Niagara Engraved Condensed';fill:#00ff00"><rect
           id="rect624-3"
           width="275.42603"
           height="100.2703"
           x="148.50159"
           y="143.42459"
           style="font-style:normal;font-variant:normal;font-weight:normal;font-stretch:condensed;font-family:'Niagara Engraved';-inkscape-font-specification:'Niagara Engraved Condensed';fill:#00ff00" /></flowRegion><flowPara
         id="flowPara626-9"
         style="font-style:normal;font-variant:normal;font-weight:normal;font-stretch:ultra-condensed;font-family:Playbill;-inkscape-font-specification:'Playbill Ultra-Condensed';fill:#00ff00">FLQQ</flowPara></flowRoot>    <path
       sodipodi:type="star"
       style="fill:#ff00ff;stroke-width:0.26458332"
       id="path700"
       sodipodi:sides="5"
       sodipodi:cx="14.776119"
       sodipodi:cy="148.23134"
       sodipodi:r1="12.000606"
       sodipodi:r2="3.7216794"
       sodipodi:arg1="1.2578951"
       sodipodi:arg2="1.4389218"
       inkscape:flatsided="false"
       inkscape:rounded="0"
       inkscape:randomized="0"
       d="m 18.470149,159.64925 -3.204656,-7.72855 -10.2069339,3.3522 6.3599909,-5.43606 -6.342243,-8.67149 7.135347,4.36888 6.287212,-8.71147 -1.950104,8.13617 10.227953,3.28751 -8.340577,0.65955 z"
       inkscape:transform-center-x="-1.1415178"
       inkscape:transform-center-y="0.0046649002" />
    <path
       sodipodi:type="star"
       style="fill:#ff00ff;stroke-width:0.26458332"
       id="path702"
       sodipodi:sides="5"
       sodipodi:cx="10.410447"
       sodipodi:cy="246.29105"
       sodipodi:r1="14.905303"
       sodipodi:r2="5.6293836"
       sodipodi:arg1="1.3203533"
       sodipodi:arg2="1.9486718"
       inkscape:flatsided="false"
       inkscape:rounded="0"
       inkscape:randomized="0"
       d="m 14.104476,260.73134 -5.7709711,-9.20806 -10.5150797,2.74329 6.9740615,-8.33396 -5.8583659,-9.15271 10.0811781,4.05738 6.8944101,-8.39998 -0.74355,10.84158 10.119345,3.96123 -10.540717,2.64307 z"
       inkscape:transform-center-x="-1.0377435"
       inkscape:transform-center-y="0.039222865" />
    <path
       sodipodi:type="star"
       style="fill:#ff6600;stroke-width:0.26458332"
       id="path704"
       sodipodi:sides="5"
       sodipodi:cx="92.350739"
       sodipodi:cy="144.87312"
       sodipodi:r1="22.326406"
       sodipodi:r2="14.043227"
       sodipodi:arg1="1.2014627"
       sodipodi:arg2="2.2269896"
       inkscape:flatsided="false"
       inkscape:rounded="0"
       inkscape:randomized="0"
       d="m 100.41044,165.69402 -16.627546,-9.69416 -8.743419,2.9725 4.081499,-18.80939 -5.528885,-7.39693 19.15005,-1.93069 5.32638,-7.54406 7.753881,17.61617 8.82077,2.73444 -14.35789,12.81808 z"
       inkscape:transform-center-x="-1.76689"
       inkscape:transform-center-y="-0.38046858" />
    <path
       sodipodi:type="star"
       style="fill:#ffdd55;stroke-width:0.26458332"
       id="path706"
       sodipodi:sides="5"
       sodipodi:cx="86.355173"
       sodipodi:cy="221.42238"
       sodipodi:r1="19.561388"
       sodipodi:r2="7.7014565"
       sodipodi:arg1="0.60228737"
       sodipodi:arg2="1.1526946"
       inkscape:flatsided="false"
       inkscape:rounded="0"
       inkscape:randomized="0"
       d="m 102.47457,232.50447 -12.992404,-4.04403 -8.68552,11.71696 -0.168776,-13.60619 -13.82746,-4.63968 12.888099,-4.36506 0.13968,-14.58444 8.13406,10.90843 13.913791,-4.37399 -7.860978,11.10684 z"
       inkscape:transform-center-x="0.14832504"
       inkscape:transform-center-y="-2.0327047" />
    <path
       sodipodi:type="spiral"
       style="fill:none;fill-rule:evenodd;stroke:#000000;stroke-width:0.26458332"
       id="path710"
       sodipodi:cx="14.440298"
       sodipodi:cy="184.5"
       sodipodi:expansion="1"
       sodipodi:revolution="3"
       sodipodi:radius="18.546314"
       sodipodi:argument="-18.01292"
       sodipodi:t0="0"
       d="m 14.440298,184.5 c 0.622988,0.69034 -0.623202,1.18036 -1.147388,1.03545 -1.420512,-0.39272 -1.557115,-2.24502 -0.923507,-3.33023 1.133377,-1.94118 3.822944,-2.03747 5.51306,-0.81156 2.480312,1.79907 2.533347,5.42274 0.699625,7.69589 -2.444063,3.02976 -7.030359,3.03591 -9.878731,0.58769 -3.5843856,-3.08084 -3.541942,-8.64172 -0.4757437,-12.06157 3.7135767,-4.14189 10.2551947,-4.04999 14.2444027,-0.3638 4.701143,4.34404 4.559306,11.86998 0.251862,16.42724 -4.973115,5.26153 -13.4856542,5.06946 -18.6100739,0.13992 -5.8226914,-5.60126 -5.5802152,-15.10194 -0.027981,-20.79291 6.2287676,-6.38441 16.7186766,-6.0914 22.9757456,0.084 6.946531,6.85581 6.602891,18.33575 -0.195901,25.15858" />
    <path
       sodipodi:type="spiral"
       style="fill:none;fill-rule:evenodd;stroke:#000000;stroke-width:0.26458332"
       id="path712"
       sodipodi:cx="14.440297"
       sodipodi:cy="184.5"
       sodipodi:expansion="1"
       sodipodi:revolution="3"
       sodipodi:radius="15.640025"
       sodipodi:argument="-18.588953"
       sodipodi:t0="0"
       d="m 14.440297,184.5 c 0.757689,0.20205 0.101457,1.12103 -0.335821,1.25933 -1.184997,0.37477 -2.132447,-0.87246 -2.182835,-1.93097 -0.09013,-1.89344 1.767735,-3.19698 3.526121,-3.10634 2.580501,0.133 4.282519,2.67135 4.029847,5.12127 -0.336772,3.26535 -3.577436,5.37638 -6.716419,4.95335 -3.95009,-0.53234 -6.4744315,-4.48457 -5.8768612,-8.31157 0.7237377,-4.63501 5.3922702,-7.57487 9.9067192,-6.80037 5.320122,0.91273 8.676808,6.30032 7.723874,11.50187 -1.100201,6.0054 -7.208604,9.77975 -13.097018,8.64738 -6.6907907,-1.28667 -10.88338833,-8.11705 -9.5708874,-14.69217 1.4724276,-7.37628 9.0256244,-11.98753 16.2873174,-10.49439 8.061855,1.65767 13.09207,9.93429 11.4179,17.88247" />
    <path
       sodipodi:type="spiral"
       style="fill:none;fill-rule:evenodd;stroke:#000000;stroke-width:0.26458332"
       id="path714"
       sodipodi:cx="91.343285"
       sodipodi:cy="265.43283"
       sodipodi:expansion="1"
       sodipodi:revolution="3"
       sodipodi:radius="21.928873"
       sodipodi:argument="-18.150896"
       sodipodi:t0="0"
       d="m 91.343285,265.43283 c 0.841876,0.70718 -0.537908,1.48373 -1.175374,1.39925 -1.727493,-0.22892 -2.188703,-2.37602 -1.623134,-3.75 1.01167,-2.45772 4.145891,-3.00788 6.324627,-1.84701 3.197382,1.70362 3.848787,5.93885 2.070895,8.89925 -2.369649,3.94576 -7.739878,4.6988 -11.47388,2.29478 -4.69886,-3.02521 -5.553481,-9.54473 -2.518657,-14.04851 3.675579,-5.45468 11.351724,-6.41087 16.623135,-2.74254 6.212173,4.32301 7.269953,13.16006 2.966413,19.19777 -4.968601,6.97077 -14.969274,8.13017 -21.772384,3.19029 -7.730126,-5.61299 -8.991181,-16.77912 -3.414178,-24.34701 6.256553,-8.49003 18.589435,-9.85277 26.921642,-3.63806 9.25033,6.8995 10.71478,20.40009 3.86194,29.49627" />
    <path
       sodipodi:type="spiral"
       style="fill:none;fill-rule:evenodd;stroke:#000000;stroke-width:0.26458332"
       id="path716"
       sodipodi:cx="91.343285"
       sodipodi:cy="265.43283"
       sodipodi:expansion="1"
       sodipodi:revolution="3"
       sodipodi:radius="10.688393"
       sodipodi:argument="-18.041939"
       sodipodi:t0="0"
       d="m 91.343285,265.43283 c 0.370425,0.38726 -0.339269,0.69039 -0.643657,0.61567 -0.824875,-0.20248 -0.93454,-1.26724 -0.587686,-1.90298 0.62044,-1.1372 2.168197,-1.23765 3.162313,-0.5597 1.458905,0.9949 1.550049,3.08149 0.531715,4.42164 -1.357279,1.78621 -3.999184,1.86644 -5.68097,0.50373 -2.116356,-1.71483 -2.184891,-4.91897 -0.475743,-6.9403 2.070006,-2.4481 5.839943,-2.50454 8.199626,-0.44776 2.780804,2.42385 2.82494,6.76165 0.419772,9.45896 -2.776861,3.11414 -7.683853,3.14584 -10.718283,0.39178 -3.447911,-3.12933 -3.467092,-8.6064 -0.363801,-11.97761 3.481424,-3.78199 9.529199,-3.7886 13.23694,-0.33581 4.116299,3.83324 4.110289,10.45218 0.307829,14.49626" />
    <path
       sodipodi:type="spiral"
       style="fill:none;fill-rule:evenodd;stroke:#000000;stroke-width:0.26458332"
       id="path718"
       sodipodi:cx="115.85821"
       sodipodi:cy="171.40298"
       sodipodi:expansion="1"
       sodipodi:revolution="3"
       sodipodi:radius="22.821001"
       sodipodi:argument="-17.854517"
       sodipodi:t0="0.0015368292"
       d="m 115.87644,171.43294 c 0.57063,1.00167 -1.07075,1.27932 -1.67266,0.97709 -1.6353,-0.82112 -1.37169,-3.10767 -0.34143,-4.28595 1.83267,-2.09595 5.12636,-1.59114 6.89923,0.29424 2.59562,2.76034 1.8241,7.17439 -0.9299,9.51251 -3.66581,3.11224 -9.23325,2.06327 -12.12579,-1.56556 -3.6369,-4.56266 -2.30574,-11.29737 2.20123,-14.73908 5.45534,-4.16592 13.36446,-2.55014 17.35235,2.83689 4.69756,6.3457 2.79577,15.43344 -3.47255,19.96564 -7.23464,5.23088 -17.50366,3.04221 -22.57892,-4.10822 -5.765332,-8.12264 -3.289215,-19.57474 4.74388,-25.1922 9.01001,-6.30059 21.64648,-3.53663 27.80548,5.37955 6.69054,9.68567 3.92933,23.19883 -5.4738,30.03694" />
    <path
       sodipodi:type="spiral"
       style="fill:none;fill-rule:evenodd;stroke:#000000;stroke-width:0.26458332"
       id="path720"
       sodipodi:cx="115.87644"
       sodipodi:cy="171.43294"
       sodipodi:expansion="1"
       sodipodi:revolution="3"
       sodipodi:radius="11.253708"
       sodipodi:argument="-17.808924"
       sodipodi:t0="0.00153683"
       d="m 115.88475,171.44811 c 0.25859,0.50626 -0.55622,0.60614 -0.84594,0.44373 -0.78712,-0.44125 -0.60587,-1.56172 -0.0719,-2.119 0.94991,-0.99132 2.56109,-0.66861 3.39206,0.30001 1.2166,1.41813 0.73733,3.57522 -0.67189,4.66512 -1.87578,1.45075 -4.59482,0.80888 -5.93818,-1.04376 -1.68905,-2.32938 -0.88193,-5.61709 1.41563,-7.21124 2.78103,-1.92959 6.64088,-0.95587 8.48431,1.78751 2.17147,3.23157 1.03036,7.6656 -2.15938,9.75736 -3.68148,2.41421 -8.69098,1.10524 -11.03043,-2.53125 -2.65754,-4.13094 -1.18037,-9.71678 2.90313,-12.30349 4.5801,-2.90127 10.74291,-1.25569 13.57654,3.275 3.07819,4.9217 1.41425,11.51646 -3.37158,14.67368" />
    <rect
       style="fill:#808000;stroke-width:0.26458332"
       id="rect722"
       width="28.208956"
       height="17.462685"
       x="35.932835"
       y="158.64178" />
    <rect
       style="fill:#808000;stroke-width:0.26458332"
       id="rect724"
       width="17.126869"
       height="21.492531"
       x="119.21642"
       y="215.05969"
       ry="7.3880596" />
    <path
       style="fill:#000000;stroke:#000000;stroke-width:0.26458332px;stroke-linecap:butt;stroke-linejoin:miter;stroke-opacity:1"
       d="m 28.544776,219.76119 c 0,0.89552 0,1.79104 0,2.68656 0,0.22388 0,0.44777 0,0.67165 0,0.22388 -0.0543,0.45444 0,0.67164 0.121415,0.48566 0.513334,0.86836 0.671642,1.34328 0.124402,0.37321 -0.363034,1.18898 0.671643,0.67164 0.03391,-0.017 0,-0.97541 0,-1.34328 0,-1.45522 0,-2.91045 0,-4.36567 0,-0.28499 0.06171,-1.8298 0,-2.01493 -0.05006,-0.15018 -0.223883,-0.22388 -0.335823,-0.33582 -0.11194,-0.11194 -0.194225,-0.26502 -0.33582,-0.33582 -0.100123,-0.0501 -0.223882,0 -0.335822,0 -0.11194,0 -0.235699,-0.0501 -0.33582,0 -0.466135,0.23307 -0.335822,0.59753 -0.335822,1.00746 0,1.90299 0,3.80597 0,5.70896 0,0.0798 -0.03763,1.26798 0,1.34328 0.111942,0.22388 0.559702,0.55971 0.671642,0.33582 0.100124,-0.20024 -0.0543,-0.45444 0,-0.67164 0.06071,-0.24283 0.256662,-0.43418 0.335822,-0.67164 0.0708,-0.21239 0,-0.44776 0,-0.67164 0,-0.5597 0,-1.11941 0,-1.67911 0,-0.78358 0,-1.56716 0,-2.35074 0,-0.5597 0,-1.11941 0,-1.67911 0,-0.33582 -0.06586,-0.67816 0,-1.00746 0.09051,-0.45258 0.22388,-0.89552 0.33582,-1.34328 1.131557,1.30918 -1.405331,2.70362 -1.007462,4.02985 0.231951,0.77317 0.951266,1.30929 1.343284,2.01492 0.556114,1.00101 0.335821,2.25546 0.335821,3.35821 0,0.33582 0,0.67165 0,1.00747 0,0.22388 -0.0543,0.45444 0,0.67164 0.121416,0.48566 0.513334,0.86836 0.671641,1.34328 0.0354,0.1062 0,0.22388 0,0.33582 0,0.11194 0.106196,0.37122 0,0.33582 -0.382894,-0.12763 -0.661373,-0.46398 -1.007462,-0.67164 -0.29216,-0.17529 -0.824206,-0.30513 -1.007463,-0.67164 -0.158307,-0.31662 -0.223881,-0.67164 -0.335821,-1.00746 -0.11194,-0.33582 -0.277626,-0.6583 -0.335821,-1.00747 -0.05521,-0.33125 0,-0.67164 0,-1.00746 0,-0.67164 0,-1.34328 0,-2.01492 0,-0.22388 0,-0.44777 0,-0.67165 0.111941,-0.11194 0.309796,-0.17966 0.335821,-0.33582 0.09201,-0.55208 -0.395768,-2.07487 0,-1.6791 0.414301,0.4143 0.335821,1.90584 0.335821,2.68657 0,1.34328 0,2.68656 0,4.02985 0,0.44776 0,0.89552 0,1.34328 0,0.11194 0,0.22388 0,0.33582 0,0.11194 0.11194,0.33582 0,0.33582 -0.11194,0 0,-0.22388 0,-0.33582 0,-0.33582 0,-0.67164 0,-1.00746 0,-1.2828 -0.0708,-0.0526 0.335821,-1.67911 0.09926,-0.39704 -0.21953,-0.39396 0.335821,-0.67164 0.100122,-0.0501 0.22388,0 0.335821,0 0.11194,0 0.22388,0 0.335821,0 0.11194,0 0.22388,0 0.33582,0 0.111941,0 0.256668,-0.0791 0.335821,0 0.0108,0.0108 0,0.92602 0,1.00747 0,1.34328 0,2.68656 0,4.02985 0,0.0814 -0.0108,0.99666 0,1.00746 0.07915,0.0791 0.256668,0.0791 0.335821,0 0.07915,-0.0792 0,-0.22388 0,-0.33582 0,-2.21018 -0.0368,2.15758 0.335821,-2.68657 0.0601,-0.78127 0,-1.56716 0,-2.35075 0,-0.78358 0,-1.56716 0,-2.35074 0,-0.89552 0.05957,-1.79303 0,-2.68657 -0.414974,-6.22462 -0.335821,0.78824 -0.335821,-4.02985 0,-0.67164 0,-1.34328 0,-2.01493 0,-0.11194 -0.11194,-0.33582 0,-0.33582 0.111941,0 0,0.22388 0,0.33582 0,0.22389 0,0.44777 0,0.67165 0,0.67164 0,1.34328 0,2.01492 0,1.67911 0,3.35821 0,5.03732 0,1.6791 0,3.3582 0,5.03731 0,0.22388 0,0.44776 0,0.67164 0,0.22388 0.158308,0.51333 0,0.67164 -0.320365,0.32037 -0.873664,-0.0682 -1.007462,-0.33582 -0.158308,-0.31661 -0.204354,-0.67879 -0.335821,-1.00746 -0.09296,-0.2324 -0.20704,-0.45701 -0.335821,-0.67164 -0.207654,-0.34609 -0.54401,-0.62457 -0.671642,-1.00747 -0.106196,-0.31858 0,-0.67164 0,-1.00746 0,-0.22388 0,-0.44776 0,-0.67164 0,-0.11194 0,-0.22388 0,-0.33582 0,-0.22388 -0.223881,-0.67164 0,-0.67164 0.223881,0 0,0.44776 0,0.67164"
       id="path726"
       inkscape:connector-curvature="0" />
    <path
       style="fill:none;stroke:#000000;stroke-width:0.26458332px;stroke-linecap:butt;stroke-linejoin:miter;stroke-opacity:1"
       d="m 29.552238,215.73134 c 1.343284,0.78358 2.580468,1.78709 4.02985,2.35074 1.754212,0.6822 1.701729,-0.14715 3.022389,-0.33582 0.997339,-0.14248 2.022705,0.12496 3.022388,0 1.359194,-0.1699 0.865066,-0.63604 2.350746,-1.00746 0.434393,-0.1086 0.895522,0 1.343284,0 0.22388,0 0.459251,0.0708 0.671643,0 0.150182,-0.0501 0.204099,-0.24801 0.335819,-0.33582 0.208267,-0.13885 0.671642,-0.0855 0.671642,-0.33582 0,-0.22388 -0.447762,0 -0.671642,0 -0.22388,0 -0.447759,0 -0.671642,0 -1.007462,0 -2.014924,0 -3.022388,0 -0.44776,0 -0.900023,-0.0633 -1.343282,0 -0.35043,0.0501 -0.657034,0.28576 -1.007464,0.33582 -3.508934,0 0.513746,-0.1416 -2.350746,0.33582 -0.331251,0.0552 -0.671643,0 -1.007462,0 -0.671643,0 -1.343285,0 -2.014927,0 -0.846666,0 -0.496615,0 -1.343281,0 -0.11194,0 -0.223883,0 -0.335823,0 -0.11194,0 -0.239831,0.0576 -0.33582,0 -0.47994,-0.28796 -1.902986,-1.00746 -1.343284,-1.00746 5.110837,0 -1.100876,2.04606 3.022388,0.67164 0.705224,-0.23508 1.309701,-0.77239 2.014927,-1.00746 0.106196,-0.0354 0.33582,-0.11194 0.33582,0 0,0.11194 -0.33582,0.11194 -0.33582,0 0,-0.11194 0.44776,0 0.33582,0 -0.447763,0 -0.895522,0 -1.343285,0 -0.151921,0 -1.925428,-0.0447 -2.014923,0 -0.141595,0.0708 -0.185637,0.28576 -0.335823,0.33582 -0.212391,0.0708 -0.447759,0 -0.671642,0 -0.11194,0 0.223883,0 0.335822,0 2.238807,0 4.477613,0 6.716417,0 0.111942,0 0.223882,0 0.335822,0 0.11194,0 0.235699,0.0501 0.33582,0 0.988258,-0.49413 -0.52129,-0.33582 1.007464,-0.33582 0.11194,0 0.44776,0 0.33582,0 -0.783582,0 -1.573215,-0.0972 -2.350746,0 -0.67468,0.0843 -1.68161,0.44859 -2.350746,0.67164 -0.33582,0.11194 -0.66035,0.2664 -1.007462,0.33582 -0.219533,0.0439 -0.447763,0 -0.671642,0 -0.335823,0 -0.671643,0 -1.007462,0 -0.223883,0 -0.447763,0 -0.671642,0 -0.335823,0 -0.688875,0.10619 -1.007465,0 -0.382894,-0.12763 -1.411068,-0.67164 -1.007462,-0.67164 0.814938,0 1.546897,0.53766 2.350746,0.67164 0.552088,0.092 1.119405,0 1.679104,0 0.783582,0 1.567164,0 2.350747,0 1.007464,0 2.014926,0 3.022388,0 0.447762,0 0.895522,0 1.343284,0 0.11194,0 0.33582,-0.11194 0.33582,0 0,0.654 -1.391285,0.23988 -1.679104,0.33582 -0.150183,0.0501 -0.185637,0.28576 -0.33582,0.33582 -0.153728,0.0512 -1.491665,0 -1.679104,0 -0.783582,0 -1.567164,0 -2.350746,0 -0.223883,0 -0.447762,0 -0.671642,0 -0.11194,0 -0.22883,0.0329 -0.335823,0 -1.35333,-0.41641 -2.686566,-0.89552 -4.02985,-1.34328"
       id="path728"
       inkscape:connector-curvature="0" />
    <path
       style="fill:none;stroke:#000000;stroke-width:0.26458332px;stroke-linecap:butt;stroke-linejoin:miter;stroke-opacity:1"
       d="m 28.880596,223.45522 c 1.455224,-0.33582 2.901204,-0.71457 4.365673,-1.00747 0.219532,-0.0439 0.447759,0 0.671642,0 h 1.007462 3.69403 1.679104 c 0.11194,0 0.256667,-0.0792 0.33582,0 0.219244,0.21925 -0.230902,0.64542 -0.33582,0.67165 -0.325795,0.0814 -0.671642,0 -1.007462,0 h -1.343284 -1.007462 c -0.335822,0 -0.678164,-0.0659 -1.007464,0 -0.49089,0.0982 -0.86836,0.51333 -1.343282,0.67164 -0.189471,0.0632 -0.786794,0 -1.007465,0 h -3.022388 0.335822 2.350747 c 0.274529,0 2.180542,0.0567 2.350746,0 0.150183,-0.0501 0.194225,-0.26503 0.33582,-0.33582 0.100123,-0.0501 0.223882,0 0.335822,0 h 0.33582 2.014926 -0.335822 -1.007462 -3.358208 -0.671642 -0.335823 2.686569 2.014924 0.335822 c 0.11194,0 0.235699,0.0501 0.33582,0 0.141594,-0.0708 0.194228,-0.26503 0.335822,-0.33582 0.100121,-0.0501 0.22388,0 0.33582,0 0.11194,0 0.235699,0.0501 0.335822,0 0.988256,-0.49413 -0.52129,-0.33583 1.007462,-0.33583 0.49984,0 0.428638,0.0501 1.007462,-0.33582 0.13172,-0.0878 0.194228,-0.26502 0.335822,-0.33582 0.100121,-0.0501 3.1342,0.34115 3.022387,0.33582 l -7.052239,-0.33582 h -1.679104 -0.33582 c -0.11194,0 -0.235699,-0.0501 -0.335823,0 -0.141594,0.0708 -0.223879,0.22388 -0.335819,0.33582 -2.014927,0.33583 -4.029851,0.67165 -6.044777,1.00747"
       id="path730"
       inkscape:connector-curvature="0"
       sodipodi:nodetypes="ccsccsccscsccsccsccscccccccccsccscsccsccsccc" />
    <path
       style="fill:url(#radialGradient892);stroke:#000000;stroke-width:0.26458332px;stroke-linecap:butt;stroke-linejoin:miter;stroke-opacity:1;fill-opacity:1"
       d="m 51.380596,231.1791 c 0,1.84883 -0.212392,1.65185 0.335822,3.02239 0.09296,0.2324 0.286732,0.42619 0.33582,0.67164 0.06586,0.3293 0,0.67164 0,1.00746 0.22388,0.44776 0.495866,0.87455 0.671642,1.34328 0.834017,0.55605 0.120499,1.36897 0.33582,2.01493 0.03279,0.0984 0.60607,0.40139 0.335822,0.67164 -0.07916,0.0792 -0.22388,0 -0.335822,0 -0.11194,0 -0.229624,0.0354 -0.33582,0 -0.397497,-0.1325 -1.487509,-0.81587 -1.679104,-1.00746 -0.63401,-0.63401 -0.210299,-1.59761 -0.335822,-2.35075 0.570751,-0.90898 -0.513334,-0.86836 -0.67164,-1.34328 -0.0708,-0.21239 0,-0.44776 0,-0.67164 v -0.67164 -1.67911 c 0,-0.22388 -0.223882,-0.67164 0,-0.67164 0.22388,0 0,0.44776 0,0.67164 v 2.35075 c 0,0.67164 0.06081,1.34604 0,2.01492 -0.05168,0.56844 -0.233717,1.11753 -0.335822,1.67911 -0.121804,0.66992 -0.170678,1.35434 -0.33582,2.01492 -0.813237,3.25295 -0.671642,0.79262 -0.671642,3.35821 v 1.00746 c 0,0.11194 -0.07916,0.25667 0,0.33582 0.07915,0.0792 0.285758,0.10013 0.33582,0 0.100123,-0.20024 -0.03166,-0.45001 0,-0.67164 0.08072,-0.56505 0.288419,-1.11029 0.335822,-1.6791 0.06507,-0.78088 0,-1.56717 0,-2.35075 v -2.01492 -7.05224 0.33582 1.00746 1.67911 c 0,2.96591 0.08911,2.85781 -0.335822,6.04477 -0.150874,1.13156 -0.530048,2.22545 -0.671643,3.35821 -0.04165,0.33323 0,0.67164 0,1.00746 0,0.22388 -0.100121,0.4714 0,0.67164 0.05006,0.10013 0.285761,0.10013 0.335823,0 0.200244,-0.40049 -0.141595,-0.91849 0,-1.34328 0.158308,-0.47492 0.563044,-0.85459 0.671642,-1.34328 0.121415,-0.54637 0,-1.1194 0,-1.67911 v -4.02985 -1.34328 c 0,-0.22388 -0.0543,-0.45445 0,-0.67164 0.05843,-0.23373 0.379039,-0.86116 0.671642,-1.00746 0.100121,-0.0501 0.22388,0 0.33582,0 h 0.33582 c 0.111942,0 0.229626,-0.0354 0.335822,0 0.237461,0.0791 0.521457,0.13557 0.671642,0.33582 0.287864,0.38382 0.63477,2.53907 0.671642,2.68656 0.08585,0.34342 0.291912,0.65621 0.33582,1.00747 0.06942,0.55537 0,1.1194 0,1.6791 v 2.35075 1.6791 c 0,0.11194 0.02196,-0.22605 0,-0.33582 -0.09052,-0.45258 -0.203197,-0.90121 -0.33582,-1.34328 -0.203435,-0.67812 -0.532799,-1.3207 -0.671642,-2.01493 -0.08781,-0.43907 0,-0.89552 0,-1.34328 v -1.00746 c 0,-0.33583 -0.09226,-0.68457 0,-1.00747 0.137528,-0.48135 0.513334,-0.86836 0.671642,-1.34328 0.484659,-1.45398 -0.641987,0.12343 0.33582,-1.34328 0.08781,-0.13172 0.285761,-0.18564 0.33582,-0.33583 0.0708,-0.21239 0.0543,-0.88883 0,-0.67164 -0.165143,0.66058 -0.170675,1.35435 -0.33582,2.01493 -0.343416,1.37367 -0.936416,2.67362 -1.343284,4.02985 -0.132623,0.44207 -0.203198,0.90121 -0.33582,1.34328 -0.203435,0.67812 -0.518062,1.32381 -0.671642,2.01493 -0.07285,0.32782 0,0.67164 0,1.00746 0,0.22388 0.0708,0.45925 0,0.67164 -0.05006,0.15019 -0.265023,0.19423 -0.33582,0.33582 -0.100124,0.20025 0.158306,0.51334 0,0.67164 -0.07916,0.0792 -0.300424,0.1062 -0.335822,0 -0.106196,-0.31858 0,-0.67164 0,-1.00746 0,-0.67164 0.0419,-1.34459 0,-2.01492 -0.07018,-1.1228 -0.140314,-2.25035 -0.33582,-3.35821 -0.141626,-0.80254 -0.47399,-1.56014 -0.671642,-2.35075 -0.171934,-0.68773 -0.596792,-3.09522 -0.671642,-3.69403 -0.02777,-0.22215 0,-0.44776 0,-0.67164 0,-0.22388 -0.100124,-0.4714 0,-0.67164 0.05006,-0.10012 0.22388,0 0.335819,0 0.499843,0 0.428641,-0.0501 1.007465,0.33582 0.13172,0.0878 0.22388,0.22388 0.33582,0.33582 0.768461,0.76846 0.936664,0.79507 1.343284,2.01493 0.0708,0.21239 -0.08315,0.46377 0,0.67164 0.149894,0.37474 0.521745,0.63272 0.671642,1.00746 0.08315,0.20787 0,0.44776 0,0.67164 0,0.33582 -0.04749,0.67502 0,1.00746 0.06527,0.45691 0.270547,0.88638 0.33582,1.34329 0.09498,0.66489 -0.09499,1.35003 0,2.01492 0.06527,0.45691 0.245306,0.89071 0.335822,1.34329 0.02196,0.10976 -0.05006,0.23569 0,0.33582 0.0708,0.14159 0.265023,0.19422 0.33582,0.33582 0.16791,0.33582 -0.22388,0.78358 -0.671642,0.33582 -0.353986,-0.35399 -0.44776,-0.89552 -0.671642,-1.34328 -1.580497,-3.161 -0.618652,-0.79551 -1.343282,-3.69403 -0.442018,-1.76807 -0.335822,-0.23415 -0.335822,-2.01493 v -1.34328 c 0,-0.11194 -0.11194,-0.33582 0,-0.33582 0.158308,0 0.22388,0.22388 0.335822,0.33582 0.11194,0.11194 0.285758,0.18563 0.33582,0.33582 0.0708,0.21239 0,0.44776 0,0.67164 v 1.34328 11.41791 2.35075 c 0,0.11194 -0.07915,0.25667 0,0.33582 0.07915,0.0791 0.256667,0.0791 0.33582,0 0.0327,-0.0327 -0.03739,-1.15632 0,-1.34328 0.179268,-0.89634 0.315095,-1.12521 1.007464,-1.67911 0.315164,-0.25213 0.722069,-0.38625 1.007462,-0.67164 0.176993,-0.17699 0.185637,-0.4714 0.33582,-0.67164 0.0069,-0.009 1.181425,-1.26236 1.343284,-1.34329 0.100124,-0.0501 0.235699,0.0501 0.335822,0 0.141595,-0.0708 0.194226,-0.26502 0.33582,-0.33582 0.294942,-0.14747 1.679104,0.32171 1.679104,-0.33582 0,-0.11194 -0.22388,0 -0.33582,0 h -1.007464 -1.679104 -7.052239 -2.686565 -0.335823 c -0.11194,0 -0.414975,0.0792 -0.33582,0 0.176993,-0.17699 0.428808,-0.27511 0.671643,-0.33582 0.217196,-0.0543 0.447759,0 0.671642,0 h 2.350746 5.037312 c 0.783582,0 1.571958,0.0865 2.350746,0 0.399246,-0.0444 2.526226,-0.50625 3.022388,-0.67164 1.157648,-0.38588 0.248764,-0.33582 1.007462,-0.33582 0.11194,0 0.335823,-0.11194 0.335823,0 0,0.11194 -0.223883,0 -0.335823,0 h -1.007462 c -0.398483,0 -2.360647,-0.0652 -2.686566,0 -0.245446,0.0491 -0.463375,0.19698 -0.671642,0.33582 -0.13172,0.0878 -0.335822,0.17751 -0.335822,0.33582 0,0.14057 0.408887,-0.0876 0.671642,0 1.549501,0.5165 -0.428686,0.32256 2.014926,0.67164 0.332447,0.0475 0.671643,0 1.007462,0 h 1.007462 1.343284 c 0.11194,0 0.33582,-0.11194 0.33582,0 0,0.11194 -0.22388,0 -0.33582,0 -0.223879,0 -0.45925,-0.0708 -0.671642,0 -0.150182,0.0501 -0.223879,0.22388 -0.335819,0.33582 -0.335823,0.11194 -0.658294,0.27763 -1.007465,0.33582 -0.662503,0.11042 -1.35242,-0.11041 -2.014924,0 -2.439709,0.40662 0.118028,0.33583 -1.679104,0.33583 h -0.671642 c -0.22388,0 -0.671642,0.22388 -0.671642,0 0,-0.22388 0.447762,0 0.671642,0 h 0.671642 2.014924 c 0.671642,0 1.346618,0.0668 2.014926,0 0.481158,-0.0481 1.830036,-0.47638 2.350747,-0.67165 1.172326,-0.43962 1.810395,-0.83432 3.022388,-1.00746 0.332446,-0.0475 0.681667,0.0814 1.007462,0 0.15358,-0.0384 0.22388,-0.22388 0.335822,-0.33582 h 0.67164 -0.33582 -0.671642 c -0.659511,0 -5.167076,-0.41322 -5.708954,-0.33582 -2.744194,0.39203 3.214134,0.46062 1.007461,1.34328 -0.3118,0.12472 -0.676211,-0.0552 -1.007461,0 -0.349171,0.0582 -0.658294,0.27763 -1.007465,0.33582 -0.33125,0.0552 -0.678161,-0.0659 -1.007462,0 -0.245446,0.0491 -0.426196,0.28674 -0.671642,0.33582 -0.329298,0.0659 -0.671642,0 -1.007462,0 H 52.72388 52.052238 c -0.11194,0 -0.235699,-0.0501 -0.33582,0 -0.141594,0.0708 -0.223882,0.22389 -0.335822,0.33583 -0.11194,0.11194 -0.285758,0.18563 -0.33582,0.33582 -0.0708,0.21239 0.100121,0.47139 0,0.67164 -0.05006,0.10012 -0.22388,0 -0.335822,0 h -0.33582 -1.343284 -1.007462 c -0.11194,0 -0.235699,0.0501 -0.335823,0 -0.141594,-0.0708 -0.335819,-0.17751 -0.335819,-0.33582 0,-0.11194 0.223879,0 0.335819,0 0.447763,0 0.900025,0.0633 1.343285,0 0.913807,-0.13055 1.772761,-0.5411 2.686568,-0.67164 0.332444,-0.0475 0.671642,0 1.007462,0 h 2.686566 2.686568 0.33582 c 0.11194,0 0.335823,-0.11194 0.335823,0 0,0.11194 -0.223883,0 -0.335823,0 h -1.343281 -2.350747 c -0.111942,0 -0.256667,0.0791 -0.335822,0 -0.07915,-0.0792 0,-0.22388 0,-0.33583"
       id="path732"
       inkscape:connector-curvature="0"
       sodipodi:nodetypes="cccccccsccccscsssscccssccccsccccsccsccccscsccssccccscscccsscccccccccsccccscsccscscscccsccccccccssssccsccscccccccccssccccscsscsccssssccsccscsssccccsssscscccccccsccccccscscsccsccscssccsccssscscc" />
    <path
       style="fill:none;stroke:#000000;stroke-width:0.26458332px;stroke-linecap:butt;stroke-linejoin:miter;stroke-opacity:1"
       d="m 109.47761,212.37313 c -3.33052,0.83263 -0.88765,-0.23963 -1.34328,0.67164 -0.0708,0.14159 -0.26503,0.19423 -0.33582,0.33582 -0.0501,0.10012 0.0792,0.25667 0,0.33582 -0.0792,0.0791 -0.2357,-0.0501 -0.33582,0 -0.1416,0.0708 -0.19423,0.26502 -0.33583,0.33582 -0.10012,0.0501 -0.28576,-0.10012 -0.33582,0 -0.10012,0.20025 0.0708,0.45925 0,0.67164 -0.3494,1.04821 -0.22388,-0.11194 -0.67164,0.33583 -0.51204,0.51204 -0.33582,1.70066 -0.33582,2.35074 0,0.17561 -0.0442,1.25498 0,1.34328 0.37126,0.74252 0.20843,0.10422 0.67164,0.33583 0.1416,0.0708 0.2041,0.248 0.33582,0.33582 0.20827,0.13884 0.49465,0.15883 0.67165,0.33582 0.0791,0.0791 -0.0501,0.23569 0,0.33582 0.19249,0.38499 0.70069,0.46713 1.00746,0.67164 0.13172,0.0878 0.19422,0.26502 0.33582,0.33582 0.14943,0.0747 1.18968,-0.0512 1.34328,0 0.15019,0.0501 0.19423,0.26503 0.33582,0.33582 0.0883,0.0442 1.16768,0 1.34329,0 0.11194,0 0.25666,0.0792 0.33582,0 0.0791,-0.0791 -0.0501,-0.2357 0,-0.33582 0.0708,-0.14159 0.26502,-0.19422 0.33582,-0.33582 0.10012,-0.20024 -0.15831,-0.51333 0,-0.67164 0.0791,-0.0791 0.25667,0.0791 0.33582,0 0.17699,-0.17699 0.15883,-0.49465 0.33582,-0.67164 0.0791,-0.0792 0.28576,0.10012 0.33582,0 0.15019,-0.30037 -0.15018,-0.7071 0,-1.00747 0.14159,-0.28318 0.57152,-0.37127 0.67164,-0.67164 0.0512,-0.1536 -0.0747,-1.19385 0,-1.34328 0.0708,-0.1416 0.26503,-0.19423 0.33582,-0.33582 0.23161,-0.46322 -0.40669,-0.30039 0.33582,-0.67164 0.10013,-0.0501 0.25667,0.0791 0.33583,0 0.1583,-0.15831 -0.10013,-0.4714 0,-0.67165 0.0708,-0.14159 0.26502,-0.19422 0.33582,-0.33582 0.0413,-0.0827 0.0244,-1.60595 0,-1.6791 -0.0501,-0.15019 -0.26503,-0.19423 -0.33582,-0.33582 -0.0501,-0.10013 0.0501,-0.2357 0,-0.33582 -0.36033,-0.72066 -0.36674,-0.0154 -1.00747,-0.33582 -0.10012,-0.0501 0,-0.22388 0,-0.33582 -0.22388,0 -0.45925,0.0708 -0.67164,0 -0.15018,-0.0501 -0.18564,-0.28576 -0.33582,-0.33583 -0.21239,-0.0708 -0.44776,0 -0.67164,0 -0.11194,0 -0.2357,0.0501 -0.33582,0 -0.1416,-0.0708 -0.19423,-0.26502 -0.33582,-0.33582 -0.10012,-0.0501 -0.22388,0 -0.33582,0 h -0.33583 -2.01492 c -0.17561,0 -1.25498,-0.0442 -1.34328,0 -0.1416,0.0708 -0.19423,0.26503 -0.33582,0.33582 -0.10013,0.0501 -0.2357,-0.0501 -0.33583,0 -0.28318,0.1416 -0.4082,0.49602 -0.67164,0.67165 -0.16911,0.73986 -0.69085,0.17751 -1.00746,0.33582 -0.14159,0.0708 -0.18564,0.28576 -0.33582,0.33582 -0.21239,0.0708 -0.4714,-0.10013 -0.67164,0 -0.10013,0.0501 0.0501,0.2357 0,0.33582 -0.0708,0.14159 -0.22388,0.22388 -0.33582,0.33582 -0.11194,0.11194 -0.19423,0.26502 -0.33582,0.33582 -0.10013,0.0501 -0.25667,-0.0791 -0.33583,0 -0.0791,0.0792 0,0.22388 0,0.33582 v 0.67164 c 0,0.2319 -0.051,1.24119 0,1.34329 0.1416,0.28318 0.53005,0.38845 0.67165,0.67164 0.0501,0.10012 -0.0792,0.25667 0,0.33582 0.0791,0.0791 0.25666,-0.0791 0.33582,0 0.0792,0.0791 -0.0792,0.25667 0,0.33582 0.0792,0.0791 0.25667,-0.0791 0.33582,0 0.44776,0.44776 -0.5597,0.33582 0.33582,0.33582 0.34741,0 0.46415,-0.0791 0.67164,0.33582 0.0501,0.10013 -0.0791,0.25667 0,0.33582 0.15831,0.15831 0.51333,-0.1583 0.67164,0 0.17699,0.177 0.15883,0.49465 0.33582,0.67164 0.15831,0.15831 0.4714,-0.10012 0.67165,0 0.28319,0.1416 0.4082,0.49602 0.67164,0.67165 0.20827,0.13884 0.46337,0.19697 0.67164,0.33582 0.13172,0.0878 0.19423,0.26502 0.33582,0.33582 0.1022,0.0511 0.85622,0 1.00746,0 0.28433,0 1.16275,0.0602 1.34329,0 0.15018,-0.0501 0.19422,-0.26502 0.33582,-0.33582 0.59447,-0.29724 0.11475,0.49951 0.67164,-0.33582 0.13884,-0.20827 0.25667,-0.43418 0.33582,-0.67165 0.0354,-0.10619 -0.0791,-0.25666 0,-0.33582 0.17699,-0.17699 0.5328,-0.12755 0.67164,-0.33582 0.12419,-0.18628 -0.12418,-0.48536 0,-0.67164 0.13885,-0.20827 0.49465,-0.15883 0.67164,-0.33582 0.0792,-0.0791 -0.0791,-0.25667 0,-0.33582 0.40903,-0.40902 0.7503,-0.15731 1.00747,-0.67164 0.0434,-0.0868 0,-1.7769 0,-2.01493 v -1.6791 -0.67164 c 0,-0.11194 0.0501,-0.2357 0,-0.33582 -0.37126,-0.74252 -0.20843,-0.10422 -0.67165,-0.33583 -0.14159,-0.0708 -0.19422,-0.26502 -0.33582,-0.33582 -0.10012,-0.0501 -0.22962,0.0354 -0.33582,0 -0.23746,-0.0791 -0.43418,-0.25666 -0.67164,-0.33582 -0.20488,-0.0683 -1.75556,0 -2.01493,0 h -2.68656 c -0.17561,0 -1.25498,-0.0442 -1.34329,0 -0.14159,0.0708 -0.18563,0.28576 -0.33582,0.33582 -0.31858,0.1062 -0.68887,-0.10619 -1.00746,0 -1.40499,-0.60812 -0.38845,0.53005 -0.67164,0.67165 -0.20025,0.10012 -0.4714,-0.10013 -0.67164,0 -0.10013,0.0501 0,0.22388 0,0.33582 -0.11194,0.11194 -0.18564,0.28576 -0.33582,0.33582 -0.2124,0.0708 -0.4714,-0.10013 -0.67165,0 -0.20024,0.10012 0.10013,0.47139 0,0.67164 -0.14159,0.28319 -0.53004,0.38845 -0.67164,0.67164 -0.0511,0.1022 0,0.85622 0,1.00746 0,0.29253 -0.062,1.89098 0,2.01493 0.0708,0.14159 0.24801,0.2041 0.33582,0.33582 0.13885,0.20827 0.15883,0.49465 0.33582,0.67164 0.0792,0.0792 0.2357,-0.0501 0.33583,0 0.28318,0.1416 0.38845,0.53005 0.67164,0.67164 0.20024,0.10013 0.47139,-0.10012 0.67164,0 0.14159,0.0708 0.19423,0.26503 0.33582,0.33582 0.1022,0.0511 0.85622,0 1.00746,0 h 3.02239 1.6791 c 0.11194,0 0.25667,0.0792 0.33583,0 0.0791,-0.0791 -0.10013,-0.28576 0,-0.33582 0.20024,-0.10012 0.45925,0.0708 0.67164,0 1.0482,-0.3494 -0.11194,-0.22388 0.33582,-0.67164 0.0791,-0.0791 0.25667,0.0792 0.33582,0 0.0791,-0.0791 -0.0791,-0.25667 0,-0.33582 0.0791,-0.0791 0.25667,0.0791 0.33582,0 0.17699,-0.17699 0.12755,-0.5328 0.33582,-0.67164 0.18628,-0.12419 0.45925,0.0708 0.67164,0 0.15019,-0.0501 0.19423,-0.26502 0.33582,-0.33582 0.10013,-0.0501 0.2357,0.0501 0.33582,0 0.0576,-0.0288 0.99356,-0.96575 1.00747,-1.00746 0.0708,-0.2124 -0.0708,-0.45925 0,-0.67165 0.0501,-0.15018 0.26502,-0.19422 0.33582,-0.33582 0.0442,-0.0883 0,-1.16767 0,-1.34328 0,-0.11194 0.0621,-0.24268 0,-0.33582 -0.17563,-0.26344 -0.44776,-0.44776 -0.67164,-0.67164 -0.11194,-0.11194 -0.19423,-0.26503 -0.33582,-0.33582 -0.10013,-0.0501 -0.2357,0.0501 -0.33583,0 -0.14159,-0.0708 -0.19422,-0.26503 -0.33582,-0.33583 -0.21301,-0.1065 -1.46094,0.10908 -1.6791,0 -1.02411,-0.51205 0.6142,-0.26622 -1.00746,-0.67164 -0.2172,-0.0543 -0.44776,0 -0.67165,0 h -1.6791 c -0.13275,0 -1.53568,-0.0717 -1.6791,0 -1.39761,0.69881 0.359,-0.0232 -0.33582,0.67164 -0.0792,0.0792 -0.2357,-0.0501 -0.33583,0 -0.14159,0.0708 -0.22388,0.22389 -0.33582,0.33583 -0.22388,0.22388 -0.40014,0.50874 -0.67164,0.67164 -0.23773,1.02394 -0.93047,0.12941 -1.34328,0.33582 -0.28319,0.14159 -0.38846,0.53005 -0.67164,0.67164 -0.10013,0.0501 -0.25667,-0.0791 -0.33582,0 -0.15831,0.15831 0.1583,0.51333 0,0.67164 -0.0792,0.0791 -0.22389,0 -0.33583,0 0,0.11194 0.0501,0.2357 0,0.33582 -0.40207,0.80416 -0.67164,-0.21163 -0.67164,0.67164 v 0.67165 c -0.11194,0 -0.28576,-0.10013 -0.33582,0 -0.10012,0.20024 0,0.44776 0,0.67164 0,0.72578 -0.10504,1.01781 0.33582,1.6791 0.0878,0.13172 0.19423,0.26502 0.33582,0.33582 0.20025,0.10013 0.51334,-0.1583 0.67165,0 0.0791,0.0792 -0.10013,0.28576 0,0.33582 0.26865,0.13433 0.7388,-0.13432 1.00746,0 0.14159,0.0708 0.18563,0.28576 0.33582,0.33582 0.30224,0.10075 0.70522,-0.10074 1.00746,0 0.23746,0.0792 3.12075,-0.41498 3.35821,-0.33582 0.21078,0.0703 -1.61363,0.67165 -1.34328,0.67165 h 2.68656 c 0.14466,0 1.92405,0.0454 2.01493,0 0.1416,-0.0708 0.19423,-0.26503 0.33582,-0.33583 0.10012,-0.0501 0.25667,0.0792 0.33582,0 0.0792,-0.0791 -0.0791,-0.25666 0,-0.33582 0.0792,-0.0791 0.25667,0.0792 0.33582,0 0.69483,-0.69482 -1.06178,0.0272 0.33582,-0.67164 0.10013,-0.0501 0.2357,0.0501 0.33582,0 0.1416,-0.0708 0.22388,-0.22388 0.33582,-0.33582 0.11194,-0.11194 0.28577,-0.18564 0.33583,-0.33582 0.0602,-0.18054 0,-1.05896 0,-1.34328 v -2.35075 c 0,-0.22388 0.0543,-0.45445 0,-0.67164 -0.0607,-0.24283 -0.25667,-0.43418 -0.33583,-0.67164 -0.0435,-0.13068 0.0521,-0.95535 0,-1.00747 -1.03076,-1.03077 -0.27922,0.19621 -1.34328,-0.33582 -0.10012,-0.0501 0.0792,-0.25666 0,-0.33582 -0.0108,-0.0108 -0.92601,0 -1.00746,0 h -4.02985"
       id="path734"
       inkscape:connector-curvature="0"
       sodipodi:nodetypes="cccccccccscccccccccsccssccccccccccccccccccsccscsccccccccsccssccccccscccsccccsccccccccccscscccccssccccccscccsccsccccscscccsccccccccccscscccccsscccscccccccsccsccccccccsscccccccscsscccccsc" />
    <path
       style="fill:none;stroke:#000000;stroke-width:0.26458332px;stroke-linecap:butt;stroke-linejoin:miter;stroke-opacity:1"
       d="m 109.47761,212.37313 c 0.46363,-2.50928 -1.60196,4.57215 0,5.37313 0.10012,0.0501 0.25667,-0.0791 0.33582,0 0.15831,0.15831 -0.0708,0.45925 0,0.67164 0.20331,0.60993 0.28741,0.62324 0.67164,1.00747 0.11194,0.11194 0.26503,0.19422 0.33582,0.33582 0.0501,0.10012 -0.0501,0.23569 0,0.33582 0.0708,0.14159 0.26503,0.19422 0.33582,0.33582 0.0501,0.10012 -0.05,0.2357 0,0.33582 0.0708,0.1416 0.26503,0.19423 0.33583,0.33582 0.0501,0.10012 -0.0354,0.22963 0,0.33582 0.0791,0.23746 0.25666,0.43418 0.33582,0.67164 0.0708,0.2124 -0.15831,0.51334 0,0.67164 0.0791,0.0792 0.28576,-0.10012 0.33582,0 0.10012,0.20025 0,0.44777 0,0.67165 0.11194,0.22388 0.19697,0.46337 0.33582,0.67164 0.0878,0.13172 0.19422,0.26502 0.33582,0.33582 0.10012,0.0501 0.33582,-0.11194 0.33582,0 0,0.11194 -0.38588,-0.10012 -0.33582,0 0.1416,0.28319 0.4082,0.49602 0.67164,0.67164 0.27285,0.1819 0.90952,-0.47574 0.33582,0.67164 -0.0501,0.10013 -0.22388,0 -0.33582,0 -0.11194,0 -0.2357,0.0501 -0.33582,0 -0.14159,-0.0708 -0.26502,-0.19422 -0.33582,-0.33582 -0.0501,-0.10012 0.0354,-0.22962 0,-0.33582 -0.81083,-2.43249 0.0968,0.52946 -0.67164,-1.00746 -0.13433,-0.26866 0.13433,-0.73881 0,-1.00746 -0.0501,-0.10013 -0.25667,0.0791 -0.33582,0 -2.7e-4,-2.7e-4 5.3e-4,-1.00594 0,-1.00747 -0.0501,-0.15018 -0.26503,-0.19422 -0.33582,-0.33582 -0.0501,-0.10012 0.0501,-0.2357 0,-0.33582 -0.0708,-0.14159 -0.23693,-0.2122 -0.33583,-0.33582 -0.34964,-0.43705 -0.69699,-0.87758 -1.00746,-1.34328 -0.13884,-0.20827 -0.19697,-0.46338 -0.33582,-0.67164 -0.0878,-0.13172 -0.26502,-0.19423 -0.33582,-0.33583 -0.0911,-0.18217 0.0919,-1.25139 0,-1.34328 -0.15831,-0.15831 -0.51333,0.15831 -0.67164,0 -0.40903,-0.40902 -0.15731,-0.75029 -0.67164,-1.00746 -0.20025,-0.10012 -0.51334,0.15831 -0.67164,0 -0.16792,-0.16791 0.16791,-0.83955 0,-1.00746 -0.0792,-0.0792 -0.25667,0.0791 -0.33583,0 -0.0791,-0.0792 -0.0791,-0.25667 0,-0.33582 0.0792,-0.0792 0.22388,0 0.33583,0 0.11194,0 0.25666,-0.0792 0.33582,0 0.0792,0.0791 -0.0792,0.25666 0,0.33582 0.0792,0.0791 0.25666,-0.0792 0.33582,0 0.0791,0.0791 -0.0354,0.22962 0,0.33582 0.3147,0.94409 0.82416,0.90043 1.34328,1.6791 0.12419,0.18628 -0.10012,0.4714 0,0.67164 0.14159,0.28319 0.53005,0.38846 0.67164,0.67164 0.0501,0.10013 -0.0354,0.22963 0,0.33583 0.0792,0.23746 0.25667,0.43418 0.33582,0.67164 0.0354,0.10619 -0.0501,0.23569 0,0.33582 0.1416,0.28319 0.53005,0.38845 0.67164,0.67164 0.0511,0.1022 0,0.85622 0,1.00746"
       id="path736"
       inkscape:connector-curvature="0" />
    <path
       style="fill:none;stroke:#000000;stroke-width:0.26458332px;stroke-linecap:butt;stroke-linejoin:miter;stroke-opacity:1"
       d="m 114.85074,241.92537 c 0,2.01492 0,4.02985 0,6.04477 0,0.44777 -0.0736,0.90162 0,1.34329 0.0607,0.36408 0.42804,1.31369 0.67165,1.6791 0.0878,0.13172 0.248,0.2041 0.33582,0.33582 0.0892,0.13378 0.63517,1.31897 0.67164,1.34329 1.59608,1.06405 -0.28231,-1.28978 1.34328,0.33581 0.0792,0.0792 -0.0791,0.25667 0,0.33583 0.0792,0.0791 0.2357,-0.0501 0.33582,0 0.1416,0.0708 0.19423,0.26502 0.33583,0.33582 0.20024,0.10012 0.51333,-0.15831 0.67164,0 0.0791,0.0791 -0.0792,0.25666 0,0.33582 0.0791,0.0791 0.2357,-0.0501 0.33582,0 0.14159,0.0708 0.19422,0.26502 0.33582,0.33582 0.10012,0.0501 0.22388,0 0.33582,0 0.11194,0 0.22388,0 0.33582,0 0.22388,0 0.44776,0 0.67164,0 0.22388,0 0.45925,0.0708 0.67164,0 0.30037,-0.10012 0.4082,-0.49602 0.67165,-0.67164 0.20826,-0.13885 0.49464,-0.15883 0.67164,-0.33582 0.17699,-0.177 0.20704,-0.45701 0.33582,-0.67164 0.20765,-0.3461 0.41951,-0.6923 0.67164,-1.00747 0.19779,-0.24723 0.48167,-0.41835 0.67164,-0.67164 0.15018,-0.20024 0.22388,-0.44776 0.33582,-0.67164 0.11194,-0.22388 0.22388,-0.44776 0.33582,-0.67164 0.22388,-0.44776 0.51334,-0.86836 0.67165,-1.34329 0.0708,-0.21239 -0.10013,-0.47139 0,-0.67164 0.14159,-0.28319 0.53004,-0.38845 0.67164,-0.67164 0.0612,-0.1224 0,-1.48561 0,-1.67911 0,-0.28432 0.0602,-1.16274 0,-1.34328 -0.9746,-2.9238 -0.24424,-0.53427 -1.00747,-1.6791 -0.13884,-0.20827 -0.19697,-0.46338 -0.33582,-0.67164 -0.0878,-0.13172 -0.22388,-0.22389 -0.33582,-0.33583 -0.11194,-0.11194 -0.19422,-0.26502 -0.33582,-0.33582 -0.10012,-0.0501 -0.2357,0.0501 -0.33582,0 -0.14159,-0.0708 -0.22388,-0.22388 -0.33582,-0.33582 -0.22388,-0.22388 -0.40015,-0.50874 -0.67164,-0.67164 -0.23774,-1.02394 -0.93047,-0.12941 -1.34328,-0.33582 -0.1416,-0.0708 -0.18564,-0.28576 -0.33583,-0.33582 -0.31858,-0.1062 -0.67164,0 -1.00746,0 -0.89552,0 -1.79104,0 -2.68657,0 -0.0814,0 -0.99666,-0.0108 -1.00746,0 -0.0792,0.0791 0.0791,0.25667 0,0.33582 -0.15831,0.15831 -0.4714,-0.10012 -0.67164,0 -0.38499,0.19249 -0.46713,0.7007 -0.67164,1.00746 -0.31047,0.4657 -0.54894,1.02232 -1.00747,1.34329 -0.6984,0.48888 -1.58823,0.6262 -2.35074,1.00746 -0.1416,0.0708 -0.19423,0.26502 -0.33582,0.33582 -0.10012,0.0501 -0.28576,-0.10012 -0.33582,0 -0.10012,0.20024 0.0708,0.45925 0,0.67164 -0.0501,0.15019 -0.26503,0.19423 -0.33582,0.33582 -0.0376,0.0753 0,1.26349 0,1.34329 0,0.33582 -0.1062,0.68887 0,1.00746 0.0354,0.10619 0.2357,-0.0501 0.33582,0 0.14159,0.0708 0.26502,0.19423 0.33582,0.33582 0.0501,0.10012 -0.0501,0.2357 0,0.33582 0.0446,0.0892 0.9183,0.96288 1.00746,1.00746 0.10012,0.0501 0.25667,-0.0791 0.33582,0 0.17699,0.177 0.12756,0.5328 0.33582,0.67164 1.00746,0.67165 0.33582,-0.33582 1.00746,0 0.28319,0.1416 0.38846,0.53005 0.67165,0.67165 0.20024,0.10012 0.47139,-0.10012 0.67164,0 0.14159,0.0708 0.19422,0.26502 0.33582,0.33582 0.20024,0.10012 0.45925,-0.0708 0.67164,0 0.23746,0.0791 0.43418,0.25667 0.67164,0.33582 0.18947,0.0632 0.78679,0 1.00746,0 0.67165,0 1.34329,0 2.01493,0 0.34597,0 2.25163,0.0496 2.35075,0 1.3976,-0.69881 -0.35901,0.0232 0.33582,-0.67164 0.17699,-0.177 0.49465,-0.15883 0.67164,-0.33582 0.0791,-0.0792 -0.0501,-0.2357 0,-0.33583 0.0708,-0.14159 0.24801,-0.20409 0.33582,-0.33582 0.63619,0.0382 0.22388,-0.78358 0.33582,-1.00746 0.1416,-0.28319 0.53005,-0.38845 0.67164,-0.67164 0.0442,-0.0883 0,-1.16768 0,-1.34328 0,-0.25671 0.0472,-2.25627 0,-2.35075 -0.0708,-0.14159 -0.26502,-0.19423 -0.33582,-0.33582 -0.0501,-0.10012 0.0501,-0.2357 0,-0.33582 -0.33959,-0.67919 -0.77933,-0.10769 -1.00746,-0.33582 -0.0791,-0.0792 0.0791,-0.25667 0,-0.33582 -0.11788,-0.11788 -1.44714,0.11598 -1.6791,0 -0.1416,-0.0708 -0.20411,-0.24801 -0.33582,-0.33582 -0.16912,-0.73987 -0.69085,-0.17752 -1.00747,-0.33583 -0.14159,-0.0708 -0.19422,-0.26502 -0.33582,-0.33582 -0.0996,-0.0498 -1.69011,0 -2.01493,0 -0.55969,0 -1.1194,0 -1.6791,0 -0.22388,0 -0.46586,-0.0882 -0.67164,0 -0.59994,0.25712 -1.10441,0.69801 -1.67911,1.00747 -0.88154,0.47468 -1.85349,0.7879 -2.68656,1.34328 -0.20827,0.13885 -0.19698,0.46338 -0.33582,0.67164 -0.51231,0.76846 -0.26583,-0.20998 -0.67165,1.00746 -0.0708,0.2124 0.0708,0.45925 0,0.67165 -0.81082,2.43249 0.0968,-0.52946 -0.67164,1.00746 -0.0501,0.10012 0,0.22388 0,0.33582 0,0.22388 0,0.44776 0,0.67164 0,0.57135 -0.12454,1.21874 0.33582,1.67911 0.15831,0.1583 0.51334,-0.15831 0.67165,0 0.17699,0.17699 0.15882,0.49464 0.33582,0.67164 0.1583,0.1583 0.47139,-0.10012 0.67164,0 0.14159,0.0708 0.22388,0.22388 0.33582,0.33582 0.38423,0.38423 0.39753,0.46833 1.00746,0.67164 0.21239,0.0708 0.4714,-0.10012 0.67164,0 0.1416,0.0708 0.26503,0.19423 0.33582,0.33582 0.0501,0.10012 -0.10012,0.28576 0,0.33582 0.20025,0.10012 0.44777,0 0.67165,0 0.22388,0 0.44776,0 0.67164,0 1.1194,0 2.23881,0 3.35821,0 0.67164,0 1.34328,0 2.01492,0 0.22388,0 0.44776,0 0.67165,0 0.11194,0 0.23569,0.0501 0.33582,0 0.0892,-0.0446 0.96287,-0.9183 1.00746,-1.00746 0.10012,-0.20025 -0.10012,-0.4714 0,-0.67164 0.0708,-0.1416 0.19423,-0.26503 0.33582,-0.33582 0.10012,-0.0501 0.28576,0.10012 0.33582,0 0.15018,-0.30037 0,-0.67165 0,-1.00747 0,-0.89552 0,-1.79104 0,-2.68656 0,-0.67165 0,-1.34329 0,-2.01493 0,-0.11194 0.0791,-0.25666 0,-0.33582 -0.0791,-0.0791 -0.25667,0.0792 -0.33582,0 -0.0792,-0.0791 0,-0.22388 0,-0.33582 -0.11194,-0.11194 -0.2041,-0.24801 -0.33582,-0.33582 -0.0626,-0.0417 -1.32177,-0.65012 -1.34328,-0.67164 -0.0792,-0.0792 0.10012,-0.28576 0,-0.33582 -0.20025,-0.10012 -0.4714,0.10012 -0.67165,0 -0.10012,-0.0501 0.0792,-0.25667 0,-0.33582 -0.0791,-0.0792 -0.22388,0 -0.33582,0 -0.13275,0 -1.53568,0.0717 -1.6791,0 -0.1416,-0.0708 -0.18564,-0.28576 -0.33582,-0.33583 -0.18572,-0.0619 -1.67674,0 -2.01493,0 -0.82021,0 -1.6437,-0.0354 -2.35075,0.67165 -0.89869,0.89869 -0.67164,3.72492 -0.67164,5.03731 0,0.3868 -0.0765,2.1212 0,2.35075 0.0354,0.10619 0.25667,-0.0792 0.33582,0 0.177,0.17699 0.15883,0.49464 0.33582,0.67164 0.0792,0.0791 0.2357,-0.0501 0.33583,0 0.14159,0.0708 0.19422,0.26502 0.33582,0.33582 0.20024,0.10012 0.45925,-0.0708 0.67164,0 0.23746,0.0791 0.46337,0.19698 0.67164,0.33582 0.13172,0.0878 0.18564,0.28576 0.33582,0.33582 0.21239,0.0708 0.45211,-0.0439 0.67164,0 0.67438,-0.0771 1.09429,0.52544 1.67911,0.67164 0.32579,0.0814 0.68887,-0.10619 1.00746,0 1.15765,0.38588 0.24876,0.33582 1.00746,0.33582"
       id="path738"
       inkscape:connector-curvature="0" />
    <path
       style="fill:none;stroke:#000000;stroke-width:0.26458332px;stroke-linecap:butt;stroke-linejoin:miter;stroke-opacity:1"
       d="m 114.85074,241.92537 c 0.78358,1.45522 1.56717,2.91044 2.35075,4.36567 0,0.11194 -0.0501,0.2357 0,0.33582 0.1805,0.361 0.44776,0.67164 0.67164,1.00746 0.22388,0.33582 0.44777,0.67164 0.67165,1.00746 0.33581,0.33582 0.7225,0.62753 1.00746,1.00747 0.39163,0.52217 0.62808,1.14796 1.00746,1.6791 0.18403,0.25764 0.48167,0.41835 0.67164,0.67164 0.49874,0.66498 0.17291,1.01413 0.67164,1.67911 0.15019,0.20024 0.5328,0.12755 0.67165,0.33582 0.12418,0.18628 -0.12419,0.48536 0,0.67164 0.13884,0.20827 0.46337,0.19698 0.67164,0.33582 0.66528,-0.0335 0.15882,0.49465 0.33582,0.67164 0.0792,0.0792 0.33582,-0.11194 0.33582,0 0,0.11194 -0.22963,0.0354 -0.33582,0 -0.23746,-0.0791 -0.5328,-0.12755 -0.67165,-0.33582 -0.12418,-0.18628 0.0708,-0.45925 0,-0.67164 -0.05,-0.15018 -0.26502,-0.19423 -0.33581,-0.33582 -0.0501,-0.10012 0,-0.22388 0,-0.33582 0,-0.14466 0.0454,-1.92405 0,-2.01493 -0.0708,-0.14159 -0.26503,-0.19422 -0.33582,-0.33582 -0.0501,-0.10012 0.10012,-0.28576 0,-0.33582 -0.20025,-0.10012 -0.4714,0.10012 -0.67165,0 -0.10012,-0.0501 0.0792,-0.25667 0,-0.33582 -0.0791,-0.0791 -0.25666,0.0791 -0.33582,0 -0.0791,-0.0791 0.0501,-0.2357 0,-0.33582 -0.37126,-0.74252 -0.20842,-0.10421 -0.67164,-0.33582 -0.1416,-0.0708 -0.19423,-0.26502 -0.33582,-0.33582 -0.2199,-0.10995 -1.38109,0.0993 -1.6791,0 -1.34329,-0.44776 -0.11194,-0.11194 -1.00747,-1.00747 -0.16791,-0.16791 -1.00746,0.33583 -1.00746,0 0,-0.22388 0.44776,0 0.67164,0 0.11194,0 0.22388,0 0.33582,0 0.5597,0 1.1194,0 1.67911,0 0.11194,0 0.24268,-0.0621 0.33582,0 0.26344,0.17563 0.38845,0.53005 0.67164,0.67165 0.20024,0.10012 0.45925,-0.0708 0.67164,0 0.30037,0.10012 0.4082,0.49601 0.67164,0.67164 0.20827,0.13884 0.49465,0.15883 0.67165,0.33582 0.17699,0.17699 0.18563,0.4714 0.33582,0.67164 0.18996,0.25329 0.48167,0.41835 0.67164,0.67164 0.30037,0.40049 0.41408,0.91402 0.67164,1.34329 0.20765,0.34609 0.46399,0.66137 0.67164,1.00746 0.25756,0.42927 0.39395,0.92675 0.67164,1.34328 0.0878,0.13172 0.22388,0.22388 0.33582,0.33582 0.11194,0.22389 0.19698,0.46338 0.33582,0.67165 0.0878,0.13172 0.24801,0.2041 0.33583,0.33582 0.13884,0.20826 0.19697,0.46337 0.33582,0.67164 0.0878,0.13172 0.26502,0.19423 0.33582,0.33582 0.0501,0.10012 -0.0792,0.25667 0,0.33582 0.0792,0.0792 0.44776,0 0.33582,0 -1.08463,0 -2.13175,0.219 -3.02239,-0.67164 -0.35399,-0.35399 -0.35116,-0.9587 -0.67164,-1.34328 -0.25838,-0.31006 -0.72207,-0.38625 -1.00746,-0.67165 -0.177,-0.17699 -0.22388,-0.44776 -0.33582,-0.67164 -0.22389,-0.44776 -0.51334,-0.86836 -0.67165,-1.34328 -0.0708,-0.21239 0.0708,-0.45925 0,-0.67165 -0.0501,-0.15018 -0.29742,-0.18223 -0.33582,-0.33581 -0.0815,-0.3258 0,-0.67165 0,-1.00747 0,-0.11194 0.0354,-0.22962 0,-0.33582 -0.0791,-0.23746 -0.25667,-0.43418 -0.33582,-0.67164 -0.0708,-0.21239 0.0708,-0.45925 0,-0.67164 -0.0791,-0.23746 -0.25667,-0.43418 -0.33582,-0.67164 -0.0354,-0.1062 0.0501,-0.2357 0,-0.33583 -0.0708,-0.14159 -0.26502,-0.19422 -0.33582,-0.33582 -0.0501,-0.10012 0.0931,-0.27372 0,-0.33582 -0.29454,-0.19635 -0.69085,-0.17751 -1.00746,-0.33582 -0.10013,-0.0501 0.25666,-0.0791 0.33582,0 0.0791,0.0792 -0.0501,0.2357 0,0.33582 0.0708,0.1416 0.22388,0.22388 0.33582,0.33582 0.11194,0.22388 0.24286,0.43924 0.33582,0.67165 0.98825,2.47064 -0.52129,-0.70676 1.00746,2.35074 0.11194,0.22388 0.18564,0.4714 0.33582,0.67165 0.18997,0.25329 0.48167,0.41834 0.67165,0.67163 0.15018,0.20025 0.18563,0.4714 0.33582,0.67165 0.75079,1.00106 0.67164,0.26654 0.67164,1.00746 0,0.11194 0.0593,0.43075 0,0.33582 -0.61082,-0.97731 -1.11941,-2.01493 -1.67911,-3.02239"
       id="path740"
       inkscape:connector-curvature="0" />
    <path
       style="fill:#fff6d5;stroke-width:1.26924431"
       d="M 136.48607,190.21103 V 157.8453 h 52.67364 52.67364 v 32.36573 32.36573 h -52.67364 -52.67364 z"
       id="path742"
       inkscape:connector-curvature="0"
       transform="matrix(0.26458333,0,0,0.26458333,0,117)" />
    <path
       style="fill:none;stroke:#000000;stroke-width:0.26458332px;stroke-linecap:butt;stroke-linejoin:miter;stroke-opacity:1"
       d="m 52.38806,184.49999 h 39.626865 v 19.81344"
       id="path744"
       inkscape:connector-curvature="0" />
    <g
       sodipodi:type="inkscape:box3d"
       id="g810"
       style="fill:#fff6d5"
       inkscape:perspectiveID="#perspective808"
       inkscape:corner0="0.92528738 : -0.11555085 : 0 : 1"
       inkscape:corner7="0.89265538 : -0.13293104 : 0.25 : 1">
      <path
         sodipodi:type="inkscape:box3dside"
         id="path812"
         style="fill:#353564;fill-rule:evenodd;stroke:none;stroke-linejoin:round"
         inkscape:box3dsidetype="6"
         d="m 38.955224,282.59954 v 9.02732 l 12.762081,-9.72594 v -7.98983 z"
         points="38.955224,291.62686 51.717305,281.90092 51.717305,273.91109 38.955224,282.59954 " />
      <path
         sodipodi:type="inkscape:box3dside"
         id="path820"
         style="fill:#afafde;fill-rule:evenodd;stroke:none;stroke-linejoin:round"
         inkscape:box3dsidetype="13"
         d="m 38.955224,291.62686 0.671642,1.45909 12.878078,-10.04431 -0.787639,-1.14072 z"
         points="39.626866,293.08595 52.504944,283.04164 51.717305,281.90092 38.955224,291.62686 " />
      <path
         sodipodi:type="inkscape:box3dside"
         id="path822"
         style="fill:#e9e9ff;fill-rule:evenodd;stroke:none;stroke-linejoin:round"
         inkscape:box3dsidetype="11"
         d="m 51.717305,273.91109 0.787639,1.01903 v 8.11152 l -0.787639,-1.14072 z"
         points="52.504944,274.93012 52.504944,283.04164 51.717305,281.90092 51.717305,273.91109 " />
      <path
         sodipodi:type="inkscape:box3dside"
         id="path814"
         style="fill:#4d4d9f;fill-rule:evenodd;stroke:none;stroke-linejoin:round"
         inkscape:box3dsidetype="5"
         d="m 38.955224,282.59954 0.671642,1.30344 12.878078,-8.97286 -0.787639,-1.01903 z"
         points="39.626866,283.90298 52.504944,274.93012 51.717305,273.91109 38.955224,282.59954 " />
      <path
         sodipodi:type="inkscape:box3dside"
         id="path818"
         style="fill:#d7d7ff;fill-rule:evenodd;stroke:none;stroke-linejoin:round"
         inkscape:box3dsidetype="14"
         d="m 39.626866,283.90298 v 9.18297 l 12.878078,-10.04431 v -8.11152 z"
         points="39.626866,293.08595 52.504944,283.04164 52.504944,274.93012 39.626866,283.90298 " />
      <path
         sodipodi:type="inkscape:box3dside"
         id="path816"
         style="fill:#8686bf;fill-rule:evenodd;stroke:none;stroke-linejoin:round"
         inkscape:box3dsidetype="3"
         d="m 38.955224,282.59954 0.671642,1.30344 v 9.18297 l -0.671642,-1.45909 z"
         points="39.626866,283.90298 39.626866,293.08595 38.955224,291.62686 38.955224,282.59954 " />
    </g>
    <g
       sodipodi:type="inkscape:box3d"
       id="g824"
       style="fill:#fff6d5"
       inkscape:perspectiveID="#perspective808"
       inkscape:corner0="0.9764012 : -0.092399999 : 0 : 1"
       inkscape:corner7="0.78666667 : -0.094115044 : 0.25 : 1">
      <path
         sodipodi:type="inkscape:box3dside"
         id="path826"
         style="fill:#353564;fill-rule:evenodd;stroke:none;stroke-linejoin:round"
         inkscape:box3dsidetype="6"
         d="m 37.947761,268.93074 v 0.86776 l 12.582216,-7.05157 v -0.77032 z"
         points="37.947761,269.7985 50.529977,262.74693 50.529977,261.97661 37.947761,268.93074 " />
      <path
         sodipodi:type="inkscape:box3dside"
         id="path834"
         style="fill:#afafde;fill-rule:evenodd;stroke:none;stroke-linejoin:round"
         inkscape:box3dsidetype="13"
         d="m 37.947761,269.7985 4.029851,6.66887 13.259704,-8.52709 -4.707339,-5.19335 z"
         points="41.977612,276.46737 55.237316,267.94028 50.529977,262.74693 37.947761,269.7985 " />
      <path
         sodipodi:type="inkscape:box3dside"
         id="path836"
         style="fill:#e9e9ff;fill-rule:evenodd;stroke:none;stroke-linejoin:round"
         inkscape:box3dsidetype="11"
         d="m 50.529977,261.97661 4.707339,5.12158 v 0.84209 l -4.707339,-5.19335 z"
         points="55.237316,267.09819 55.237316,267.94028 50.529977,262.74693 50.529977,261.97661 " />
      <path
         sodipodi:type="inkscape:box3dside"
         id="path828"
         style="fill:#4d4d9f;fill-rule:evenodd;stroke:none;stroke-linejoin:round"
         inkscape:box3dsidetype="5"
         d="m 37.947761,268.93074 4.029851,6.57672 13.259704,-8.40927 -4.707339,-5.12158 z"
         points="41.977612,275.50746 55.237316,267.09819 50.529977,261.97661 37.947761,268.93074 " />
      <path
         sodipodi:type="inkscape:box3dside"
         id="path832"
         style="fill:#d7d7ff;fill-rule:evenodd;stroke:none;stroke-linejoin:round"
         inkscape:box3dsidetype="14"
         d="m 41.977612,275.50746 v 0.95991 l 13.259704,-8.52709 v -0.84209 z"
         points="41.977612,276.46737 55.237316,267.94028 55.237316,267.09819 41.977612,275.50746 " />
      <path
         sodipodi:type="inkscape:box3dside"
         id="path830"
         style="fill:#8686bf;fill-rule:evenodd;stroke:none;stroke-linejoin:round"
         inkscape:box3dsidetype="3"
         d="m 37.947761,268.93074 4.029851,6.57672 v 0.95991 l -4.029851,-6.66887 z"
         points="41.977612,275.50746 41.977612,276.46737 37.947761,269.7985 37.947761,268.93074 " />
    </g>
    <g
       sodipodi:type="inkscape:box3d"
       id="g838"
       style="fill:#fff6d5"
       inkscape:perspectiveID="#perspective808"
       inkscape:corner0="1.6907631 : -0.089117647 : 0 : 1"
       inkscape:corner7="1.1895425 : -0.10373494 : 0.25 : 1">
      <path
         sodipodi:type="inkscape:box3dside"
         id="path840"
         style="fill:#353564;fill-rule:evenodd;stroke:none;stroke-linejoin:round"
         inkscape:box3dsidetype="6"
         d="m 27.873134,251.26909 v 5.4324 l 10.382243,-4.22522 v -4.97058 z"
         points="27.873134,256.70149 38.255377,252.47627 38.255377,247.50569 27.873134,251.26909 " />
      <path
         sodipodi:type="inkscape:box3dside"
         id="path848"
         style="fill:#afafde;fill-rule:evenodd;stroke:none;stroke-linejoin:round"
         inkscape:box3dsidetype="13"
         d="m 27.873134,256.70149 6.380597,11.37745 11.861473,-6.25926 -7.859827,-9.34341 z"
         points="34.253731,268.07894 46.115204,261.81968 38.255377,252.47627 27.873134,256.70149 " />
      <path
         sodipodi:type="inkscape:box3dside"
         id="path850"
         style="fill:#e9e9ff;fill-rule:evenodd;stroke:none;stroke-linejoin:round"
         inkscape:box3dsidetype="11"
         d="m 38.255377,247.50569 7.859827,8.32217 v 5.99182 l -7.859827,-9.34341 z"
         points="46.115204,255.82786 46.115204,261.81968 38.255377,252.47627 38.255377,247.50569 " />
      <path
         sodipodi:type="inkscape:box3dside"
         id="path842"
         style="fill:#4d4d9f;fill-rule:evenodd;stroke:none;stroke-linejoin:round"
         inkscape:box3dsidetype="5"
         d="m 27.873134,251.26909 6.380597,10.13389 11.861473,-5.57512 -7.859827,-8.32217 z"
         points="34.253731,261.40298 46.115204,255.82786 38.255377,247.50569 27.873134,251.26909 " />
      <path
         sodipodi:type="inkscape:box3dside"
         id="path846"
         style="fill:#d7d7ff;fill-rule:evenodd;stroke:none;stroke-linejoin:round"
         inkscape:box3dsidetype="14"
         d="m 34.253731,261.40298 v 6.67596 l 11.861473,-6.25926 v -5.99182 z"
         points="34.253731,268.07894 46.115204,261.81968 46.115204,255.82786 34.253731,261.40298 " />
      <path
         sodipodi:type="inkscape:box3dside"
         id="path844"
         style="fill:#8686bf;fill-rule:evenodd;stroke:none;stroke-linejoin:round"
         inkscape:box3dsidetype="3"
         d="m 27.873134,251.26909 6.380597,10.13389 v 6.67596 l -6.380597,-11.37745 z"
         points="34.253731,261.40298 34.253731,268.07894 27.873134,256.70149 27.873134,251.26909 " />
    </g>
    <g
       sodipodi:type="inkscape:box3d"
       id="g852"
       style="fill:#fff6d5"
       inkscape:perspectiveID="#perspective808"
       inkscape:corner0="0.31372551 : -0.034852941 : 0 : 1"
       inkscape:corner7="0.19429591 : -0.034973261 : 0.25 : 1">
      <path
         sodipodi:type="inkscape:box3dside"
         id="path854"
         style="fill:#353564;fill-rule:evenodd;stroke:none;stroke-linejoin:round"
         inkscape:box3dsidetype="6"
         d="m 57.089552,256.36567 v 0.0916 l 14.854021,-7.90696 v -0.0769 z"
         points="57.089552,256.45725 71.943573,248.55029 71.943573,248.47335 57.089552,256.36567 " />
      <path
         sodipodi:type="inkscape:box3dside"
         id="path862"
         style="fill:#afafde;fill-rule:evenodd;stroke:none;stroke-linejoin:round"
         inkscape:box3dsidetype="13"
         d="m 57.089552,256.45725 5.708955,4.94573 15.094119,-9.41687 -5.949053,-3.43582 z"
         points="62.798507,261.40298 77.892626,251.98611 71.943573,248.55029 57.089552,256.45725 " />
      <path
         sodipodi:type="inkscape:box3dside"
         id="path864"
         style="fill:#e9e9ff;fill-rule:evenodd;stroke:none;stroke-linejoin:round"
         inkscape:box3dsidetype="11"
         d="m 71.943573,248.47335 5.949053,3.42945 v 0.0833 l -5.949053,-3.43582 z"
         points="77.892626,251.9028 77.892626,251.98611 71.943573,248.55029 71.943573,248.47335 " />
      <path
         sodipodi:type="inkscape:box3dside"
         id="path856"
         style="fill:#4d4d9f;fill-rule:evenodd;stroke:none;stroke-linejoin:round"
         inkscape:box3dsidetype="5"
         d="m 57.089552,256.36567 5.708955,4.93656 15.094119,-9.39943 -5.949053,-3.42945 z"
         points="62.798507,261.30223 77.892626,251.9028 71.943573,248.47335 57.089552,256.36567 " />
      <path
         sodipodi:type="inkscape:box3dside"
         id="path860"
         style="fill:#d7d7ff;fill-rule:evenodd;stroke:none;stroke-linejoin:round"
         inkscape:box3dsidetype="14"
         d="m 62.798507,261.30223 v 0.10075 l 15.094119,-9.41687 v -0.0833 z"
         points="62.798507,261.40298 77.892626,251.98611 77.892626,251.9028 62.798507,261.30223 " />
      <path
         sodipodi:type="inkscape:box3dside"
         id="path858"
         style="fill:#8686bf;fill-rule:evenodd;stroke:none;stroke-linejoin:round"
         inkscape:box3dsidetype="3"
         d="m 57.089552,256.36567 5.708955,4.93656 v 0.10075 l -5.708955,-4.94573 z"
         points="62.798507,261.30223 62.798507,261.40298 57.089552,256.45725 57.089552,256.36567 " />
    </g>
    <g
       sodipodi:type="inkscape:box3d"
       id="g866"
       style="fill:#fff6d5"
       inkscape:perspectiveID="#perspective808"
       inkscape:corner0="0.14529918 : 0.0026923096 : 0 : 1"
       inkscape:corner7="0.14529915 : -0.011923074 : 0.25 : 1">
      <path
         sodipodi:type="inkscape:box3dside"
         id="path868"
         style="fill:#353564;fill-rule:evenodd;stroke:none;stroke-linejoin:round"
         inkscape:box3dsidetype="6"
         d="m 65.485073,230.84328 v 12.76119 L 80.62787,237.04594 V 226.5712 Z"
         points="65.485073,243.60447 80.62787,237.04594 80.62787,226.5712 65.485073,230.84328 " />
      <path
         sodipodi:type="inkscape:box3dside"
         id="path876"
         style="fill:#afafde;fill-rule:evenodd;stroke:none;stroke-linejoin:round"
         inkscape:box3dsidetype="13"
         d="m 65.485073,243.60447 2e-6,0 15.142797,-6.55853 -2e-6,0 z"
         points="65.485075,243.60447 80.627872,237.04594 80.62787,237.04594 65.485073,243.60447 " />
      <path
         sodipodi:type="inkscape:box3dside"
         id="path878"
         style="fill:#e9e9ff;fill-rule:evenodd;stroke:none;stroke-linejoin:round"
         inkscape:box3dsidetype="11"
         d="m 80.62787,226.5712 2e-6,1e-5 v 10.47473 l -2e-6,0 z"
         points="80.627872,226.57121 80.627872,237.04594 80.62787,237.04594 80.62787,226.5712 " />
      <path
         sodipodi:type="inkscape:box3dside"
         id="path870"
         style="fill:#4d4d9f;fill-rule:evenodd;stroke:none;stroke-linejoin:round"
         inkscape:box3dsidetype="5"
         d="m 65.485073,230.84328 2e-6,0 15.142797,-4.27207 -2e-6,-1e-5 z"
         points="65.485075,230.84328 80.627872,226.57121 80.62787,226.5712 65.485073,230.84328 " />
      <path
         sodipodi:type="inkscape:box3dside"
         id="path874"
         style="fill:#d7d7ff;fill-rule:evenodd;stroke:none;stroke-linejoin:round"
         inkscape:box3dsidetype="14"
         d="m 65.485075,230.84328 v 12.76119 l 15.142797,-6.55853 v -10.47473 z"
         points="65.485075,243.60447 80.627872,237.04594 80.627872,226.57121 65.485075,230.84328 " />
      <path
         sodipodi:type="inkscape:box3dside"
         id="path872"
         style="fill:#8686bf;fill-rule:evenodd;stroke:none;stroke-linejoin:round"
         inkscape:box3dsidetype="3"
         d="m 65.485073,230.84328 2e-6,0 v 12.76119 l -2e-6,0 z"
         points="65.485075,230.84328 65.485075,243.60447 65.485073,243.60447 65.485073,230.84328 " />
    </g>
    <g
       sodipodi:type="inkscape:box3d"
       id="g894"
       style="fill:#800000"
       inkscape:perspectiveID="#perspective808"
       inkscape:corner0="0.654321 : 0.13222223 : 0 : 1"
       inkscape:corner7="0.42250532 : 0.12171975 : 0.25 : 1">
      <path
         sodipodi:type="inkscape:box3dside"
         id="path896"
         style="fill:#353564;fill-rule:evenodd;stroke:none;stroke-linejoin:round"
         inkscape:box3dsidetype="6"
         d="m 45.335821,145.20895 v 6.34851 l 13.740354,7.27852 v -5.51508 z"
         points="45.335821,151.55746 59.076175,158.83598 59.076175,153.3209 45.335821,145.20895 " />
      <path
         sodipodi:type="inkscape:box3dside"
         id="path906"
         style="fill:#e9e9ff;fill-rule:evenodd;stroke:none;stroke-linejoin:round"
         inkscape:box3dsidetype="11"
         d="m 59.076175,153.3209 8.188186,-7.44013 v 6.27949 l -8.188186,6.67572 z"
         points="67.264361,145.88077 67.264361,152.16026 59.076175,158.83598 59.076175,153.3209 " />
      <path
         sodipodi:type="inkscape:box3dside"
         id="path898"
         style="fill:#4d4d9f;fill-rule:evenodd;stroke:none;stroke-linejoin:round"
         inkscape:box3dsidetype="5"
         d="m 45.335821,145.20895 7.38806,-10.06965 14.54048,10.74147 -8.188186,7.44013 z"
         points="52.723881,135.1393 67.264361,145.88077 59.076175,153.3209 45.335821,145.20895 " />
      <path
         sodipodi:type="inkscape:box3dside"
         id="path904"
         style="fill:#afafde;fill-rule:evenodd;stroke:none;stroke-linejoin:round"
         inkscape:box3dsidetype="13"
         d="m 45.335821,151.55746 7.38806,-9.03508 14.54048,9.63788 -8.188186,6.67572 z"
         points="52.723881,142.52238 67.264361,152.16026 59.076175,158.83598 45.335821,151.55746 " />
      <path
         sodipodi:type="inkscape:box3dside"
         id="path902"
         style="fill:#d7d7ff;fill-rule:evenodd;stroke:none;stroke-linejoin:round"
         inkscape:box3dsidetype="14"
         d="m 52.723881,135.1393 v 7.38308 l 14.54048,9.63788 v -6.27949 z"
         points="52.723881,142.52238 67.264361,152.16026 67.264361,145.88077 52.723881,135.1393 " />
      <path
         sodipodi:type="inkscape:box3dside"
         id="path900"
         style="fill:#8686bf;fill-rule:evenodd;stroke:none;stroke-linejoin:round"
         inkscape:box3dsidetype="3"
         d="m 45.335821,145.20895 7.38806,-10.06965 v 7.38308 l -7.38806,9.03508 z"
         points="52.723881,135.1393 52.723881,142.52238 45.335821,151.55746 45.335821,145.20895 " />
    </g>
    <flowRoot
       xml:space="preserve"
       id="flowRoot620-9-4"
       style="font-style:normal;font-variant:normal;font-weight:normal;font-stretch:condensed;font-size:64px;line-height:1.25;font-family:'Niagara Engraved';-inkscape-font-specification:'Niagara Engraved Condensed';letter-spacing:0px;word-spacing:0px;fill:#00ffff;fill-opacity:1;stroke:none;"
       transform="matrix(0.25858979,0.05599694,-0.05599694,0.25858979,12.60121,134.69921)"
       inkscape:transform-center-x="38.838691"
       inkscape:transform-center-y="62.113229"><flowRegion
         id="flowRegion622-1-9"
         style="font-style:normal;font-variant:normal;font-weight:normal;font-stretch:condensed;font-family:'Niagara Engraved';-inkscape-font-specification:'Niagara Engraved Condensed';fill:#00ffff;"><rect
           id="rect624-2-1"
           width="275.42603"
           height="100.2703"
           x="148.50159"
           y="143.42459"
           style="font-style:normal;font-variant:normal;font-weight:normal;font-stretch:condensed;font-family:'Niagara Engraved';-inkscape-font-specification:'Niagara Engraved Condensed';fill:#00ffff;" /></flowRegion><flowPara
         id="flowPara626-6-8"
         style="font-style:normal;font-variant:normal;font-weight:normal;font-stretch:ultra-condensed;font-family:Playbill;-inkscape-font-specification:'Playbill Ultra-Condensed';fill:#00ffff;">FLQQ</flowPara></flowRoot>    <flowRoot
       xml:space="preserve"
       id="flowRoot620-9-4-5"
       style="font-style:normal;font-variant:normal;font-weight:normal;font-stretch:condensed;font-size:64px;line-height:1.25;font-family:'Niagara Engraved';-inkscape-font-specification:'Niagara Engraved Condensed';letter-spacing:0px;word-spacing:0px;fill:#ff00ff;fill-opacity:1;stroke:none;"
       transform="matrix(0.15354175,-0.21547453,0.21547453,0.15354175,37.359943,211.77012)"
       inkscape:transform-center-x="-41.718219"
       inkscape:transform-center-y="60.136282"><flowRegion
         id="flowRegion622-1-9-9"
         style="font-style:normal;font-variant:normal;font-weight:normal;font-stretch:condensed;font-family:'Niagara Engraved';-inkscape-font-specification:'Niagara Engraved Condensed';fill:#ff00ff;"><rect
           id="rect624-2-1-1"
           width="275.42603"
           height="100.2703"
           x="148.50159"
           y="143.42459"
           style="font-style:normal;font-variant:normal;font-weight:normal;font-stretch:condensed;font-family:'Niagara Engraved';-inkscape-font-specification:'Niagara Engraved Condensed';fill:#ff00ff;" /></flowRegion><flowPara
         id="flowPara626-6-8-6"
         style="font-style:normal;font-variant:normal;font-weight:normal;font-stretch:ultra-condensed;font-family:Playbill;-inkscape-font-specification:'Playbill Ultra-Condensed';fill:#ff00ff;">FLQQ</flowPara></flowRoot>  </g>
</svg>
